<svg xmlns="http://www.w3.org/2000/svg" viewBox="0 0 1920 1200">
  <defs>
    <linearGradient id="bg" x1="0" y1="0" x2="0" y2="1">
      <stop offset="0" stop-color="#cfd1f6"/>
      <stop offset="0.45" stop-color="#fde3ea"/>
      <stop offset="1" stop-color="#fefbf4"/>
    </linearGradient>
    <radialGradient id="glow" cx="0.72" cy="0.38" r="0.55">
      <stop offset="0" stop-color="#ffffff" stop-opacity="0.8"/>
      <stop offset="1" stop-color="#ffffff" stop-opacity="0"/>
    </radialGradient>
    <linearGradient id="sun" x1="0" y1="0" x2="0" y2="1">
      <stop offset="0" stop-color="#ffd0af"/>
      <stop offset="1" stop-color="#ffb187"/>
    </linearGradient>
  </defs>
  <rect width="1920" height="1200" fill="url(#bg)"/>
  <rect width="1920" height="1200" fill="url(#glow)"/>
  <!-- retro striped sun -->
  <g>
    <circle cx="1420" cy="420" r="230" fill="url(#sun)"/>
    <rect x="1170" y="470" width="500" height="26" fill="#fde3ea"/>
    <rect x="1170" y="524" width="500" height="20" fill="#fde3ea"/>
    <rect x="1170" y="570" width="500" height="14" fill="#fde3ea"/>
    <rect x="1170" y="608" width="500" height="9" fill="#fde3ea"/>
  </g>
  <!-- dreamy pastel clouds -->
  <g opacity="0.85">
    <ellipse cx="330" cy="300" rx="180" ry="56" fill="#ffffff"/>
    <ellipse cx="480" cy="270" rx="120" ry="44" fill="#ffffff"/>
    <ellipse cx="1680" cy="180" rx="150" ry="46" fill="#ffffff" opacity="0.8"/>
  </g>
  <!-- rolling pastel hills -->
  <path d="M0 980 Q480 840 960 950 T1920 900 L1920 1200 L0 1200 Z" fill="#f9ccd9" opacity="0.7"/>
  <path d="M0 1060 Q560 950 1100 1050 T1920 1020 L1920 1200 L0 1200 Z" fill="#bfe5cc" opacity="0.55"/>
  <!-- retro daisies -->
  <g opacity="0.9">
    <g transform="translate(1560 880)">
      <ellipse cx="0" cy="-30" rx="12" ry="18" fill="#ffffff"/>
      <ellipse cx="0" cy="30" rx="12" ry="18" fill="#ffffff"/>
      <ellipse cx="-30" cy="0" rx="18" ry="12" fill="#ffffff"/>
      <ellipse cx="30" cy="0" rx="18" ry="12" fill="#ffffff"/>
      <ellipse cx="-22" cy="-22" rx="14" ry="14" fill="#ffffff"/>
      <ellipse cx="22" cy="-22" rx="14" ry="14" fill="#ffffff"/>
      <ellipse cx="-22" cy="22" rx="14" ry="14" fill="#ffffff"/>
      <ellipse cx="22" cy="22" rx="14" ry="14" fill="#ffffff"/>
      <circle r="16" fill="#ffb187"/>
    </g>
    <g transform="translate(1700 1000) scale(0.7)">
      <ellipse cx="0" cy="-30" rx="12" ry="18" fill="#ffffff"/>
      <ellipse cx="0" cy="30" rx="12" ry="18" fill="#ffffff"/>
      <ellipse cx="-30" cy="0" rx="18" ry="12" fill="#ffffff"/>
      <ellipse cx="30" cy="0" rx="18" ry="12" fill="#ffffff"/>
      <ellipse cx="-22" cy="-22" rx="14" ry="14" fill="#ffffff"/>
      <ellipse cx="22" cy="-22" rx="14" ry="14" fill="#ffffff"/>
      <ellipse cx="-22" cy="22" rx="14" ry="14" fill="#ffffff"/>
      <ellipse cx="22" cy="22" rx="14" ry="14" fill="#ffffff"/>
      <circle r="16" fill="#b4b8f0"/>
    </g>
  </g>
</svg>
